# xmcd
#
# Track frame offsets: 
#        150
#        15069
#        29753
#        48390
#        65803
#        80267
#        98227
#        117400
#        130098
#        146296
#
# Disc length: 2144 seconds
#
# Revision: 0
# Processed by: cddbd v1.5.1PL2 Copyright (c) Steve Scherf et al.
# Submitted via: ExactAudioCopy v0.95b2
#
DISCID=7f085e0a
DTITLE=TOR - Maus Habitos e Promessas Quebradas
DYEAR=2006
DGENRE=Country
TTITLE0=Esta noite vou deixar a garrafa me derrubar
TTITLE1=Dois Estranhos
TTITLE2=Noite Passada
TTITLE3=Ela Acha Que Eu Ainda Penso Nela
TTITLE4=Deixando São Paulo
TTITLE5=Coroa de Espinhos
TTITLE6=Portos e Aeroportos
TTITLE7=Guardada para Sempre
TTITLE8=Garota Perdida
TTITLE9=Quando o Trem Partir...
EXTD=
EXTT0=
EXTT1=
EXTT2=
EXTT3=
EXTT4=
EXTT5=
EXTT6=
EXTT7=
EXTT8=
EXTT9=
PLAYORDER=
